<mxfile host="app.diagrams.net" modified="2023-08-24T11:20:46.131Z" agent="Mozilla/5.0 (Windows NT 10.0; Win64; x64) AppleWebKit/537.36 (KHTML, like Gecko) Chrome/116.0.0.0 Safari/537.36" etag="rJG5EPtWiMMXF9S73SfA" version="21.6.9" type="device">
  <diagram id="3228e29e-7158-1315-38df-8450db1d8a1d" name="Page-1">
    <mxGraphModel dx="2713" dy="1638" grid="1" gridSize="10" guides="1" tooltips="1" connect="1" arrows="1" fold="1" page="1" pageScale="1" pageWidth="2250" pageHeight="1700" background="#FFFFFF" math="0" shadow="0">
      <root>
        <mxCell id="0" />
        <mxCell id="1" parent="0" />
        <mxCell id="xjmqVt3X7ruV0F9-SoPd-12" value="楼梯" style="rounded=0;whiteSpace=wrap;html=1;fontSize=24;shadow=0;glass=0;fillStyle=auto;gradientColor=none;fillColor=default;" parent="1" vertex="1">
          <mxGeometry x="1848.56" y="520" width="118.27" height="220" as="geometry" />
        </mxCell>
        <mxCell id="R6_tbuOiA4LubrBfz1OE-21567" value="" style="rounded=0;whiteSpace=wrap;html=1;fillColor=#dae8fc;strokeColor=#6c8ebf;align=right;opacity=60;fontSize=36;labelPosition=left;verticalLabelPosition=middle;verticalAlign=middle;" parent="1" vertex="1">
          <mxGeometry x="235" y="515" width="1610" height="845" as="geometry" />
        </mxCell>
        <mxCell id="R6_tbuOiA4LubrBfz1OE-21570" value="乐读书社" style="rounded=0;whiteSpace=wrap;html=1;shadow=0;glass=0;sketch=0;fillColor=#d5e8d4;strokeColor=#82b366;fontSize=36;" parent="1" vertex="1">
          <mxGeometry x="730.53" y="110" width="959.47" height="400" as="geometry" />
        </mxCell>
        <mxCell id="R6_tbuOiA4LubrBfz1OE-21565" value="" style="endArrow=classic;html=1;rounded=0;fontSize=36;strokeWidth=8;" parent="1" edge="1">
          <mxGeometry width="50" height="50" relative="1" as="geometry">
            <mxPoint x="1832.7" y="240" as="sourcePoint" />
            <mxPoint x="1832.7" y="70" as="targetPoint" />
          </mxGeometry>
        </mxCell>
        <mxCell id="R6_tbuOiA4LubrBfz1OE-21566" value="&lt;font style=&quot;font-size: 48px;&quot;&gt;北&lt;/font&gt;" style="text;html=1;resizable=0;autosize=1;align=center;verticalAlign=middle;points=[];fillColor=none;strokeColor=none;rounded=0;fontSize=36;" parent="1" vertex="1">
          <mxGeometry x="1872.7" y="140" width="70" height="70" as="geometry" />
        </mxCell>
        <mxCell id="R6_tbuOiA4LubrBfz1OE-21568" value="瑞幸咖啡" style="rounded=1;whiteSpace=wrap;html=1;fillColor=#0050ef;strokeColor=#001DBC;fontColor=#ffffff;fontSize=36;" parent="1" vertex="1">
          <mxGeometry x="965" y="420" width="475" height="95.68" as="geometry" />
        </mxCell>
        <mxCell id="R6_tbuOiA4LubrBfz1OE-21572" value="" style="rounded=0;whiteSpace=wrap;html=1;fillColor=#dae8fc;strokeColor=#6c8ebf;align=center;opacity=60;fontSize=36;" parent="1" vertex="1">
          <mxGeometry x="250" y="155" width="480" height="360" as="geometry" />
        </mxCell>
        <mxCell id="R6_tbuOiA4LubrBfz1OE-21571" value="喜宝&lt;br&gt;美甲美睫&lt;br&gt;皮肤管理" style="rounded=0;whiteSpace=wrap;html=1;shadow=0;glass=0;sketch=0;fillColor=#fff2cc;strokeColor=#d6b656;fontSize=36;" parent="1" vertex="1">
          <mxGeometry x="488.75" y="100" width="241.25" height="155" as="geometry" />
        </mxCell>
        <mxCell id="R6_tbuOiA4LubrBfz1OE-21574" value="墙" style="rounded=0;whiteSpace=wrap;html=1;glass=0;shadow=0;sketch=0;fillColor=#C2C2C2;gradientColor=none;strokeColor=#666666;fillStyle=auto;fontSize=24;" parent="1" vertex="1">
          <mxGeometry x="734.5" y="515" width="825.5" height="26.37" as="geometry" />
        </mxCell>
        <mxCell id="R6_tbuOiA4LubrBfz1OE-21575" value="&lt;font style=&quot;font-size: 24px;&quot;&gt;墙&lt;/font&gt;" style="rounded=0;whiteSpace=wrap;html=1;glass=0;shadow=0;sketch=0;fillColor=#C2C2C2;gradientColor=none;strokeColor=#666666;fontSize=24;" parent="1" vertex="1">
          <mxGeometry x="1690" y="110" width="30" height="400" as="geometry" />
        </mxCell>
        <mxCell id="R6_tbuOiA4LubrBfz1OE-21578" value="&lt;font style=&quot;font-size: 36px;&quot;&gt;一间寿司&lt;/font&gt;" style="rounded=0;whiteSpace=wrap;html=1;shadow=0;glass=0;sketch=0;fillStyle=auto;fillColor=#f8cecc;opacity=60;strokeColor=#b85450;fontSize=36;" parent="1" vertex="1">
          <mxGeometry x="1852.26" y="346.45" width="169.47" height="170" as="geometry" />
        </mxCell>
        <mxCell id="R6_tbuOiA4LubrBfz1OE-21579" value="打印店" style="rounded=0;whiteSpace=wrap;html=1;shadow=0;glass=0;sketch=0;fillStyle=auto;fillColor=#fff2cc;opacity=60;strokeColor=#d6b656;fontSize=36;" parent="1" vertex="1">
          <mxGeometry x="1690" y="1360" width="160" height="230" as="geometry" />
        </mxCell>
        <mxCell id="R6_tbuOiA4LubrBfz1OE-21582" value="理发店" style="rounded=0;whiteSpace=wrap;html=1;shadow=0;glass=0;sketch=0;fillStyle=auto;fontSize=36;fillColor=#d5e8d4;opacity=60;strokeColor=#82b366;" parent="1" vertex="1">
          <mxGeometry x="1852.26" y="1300" width="239.47" height="190" as="geometry" />
        </mxCell>
        <mxCell id="R6_tbuOiA4LubrBfz1OE-21584" value="&lt;font style=&quot;font-size: 24px;&quot;&gt;小姑娘&lt;br style=&quot;font-size: 24px;&quot;&gt;冰激凌&lt;/font&gt;" style="shape=manualInput;whiteSpace=wrap;html=1;rounded=0;shadow=0;glass=0;sketch=0;fillStyle=auto;fontSize=24;fillColor=#fff2cc;opacity=60;rotation=-1;strokeColor=#d6b656;direction=south;labelPosition=center;verticalLabelPosition=middle;align=center;verticalAlign=middle;size=53;" parent="1" vertex="1">
          <mxGeometry x="1844.1299999999999" y="740" width="98.57" height="80" as="geometry" />
        </mxCell>
        <mxCell id="R6_tbuOiA4LubrBfz1OE-21586" value="&lt;font style=&quot;font-size: 36px;&quot;&gt;洗衣店&lt;/font&gt;" style="rounded=0;whiteSpace=wrap;html=1;shadow=0;glass=0;sketch=0;fillStyle=auto;fontSize=36;fillColor=#f8cecc;strokeColor=#b85450;opacity=60;" parent="1" vertex="1">
          <mxGeometry x="1510" y="1360" width="180" height="230" as="geometry" />
        </mxCell>
        <mxCell id="R6_tbuOiA4LubrBfz1OE-21587" value="电信营业厅" style="rounded=0;whiteSpace=wrap;html=1;shadow=0;glass=0;sketch=0;fillStyle=auto;fontSize=36;fillColor=#e1d5e7;opacity=60;strokeColor=#9673a6;" parent="1" vertex="1">
          <mxGeometry x="1320" y="1360" width="190" height="230" as="geometry" />
        </mxCell>
        <mxCell id="R6_tbuOiA4LubrBfz1OE-21588" value="打印店" style="rounded=0;whiteSpace=wrap;html=1;shadow=0;glass=0;sketch=0;fillStyle=auto;fontSize=36;fillColor=#d5e8d4;opacity=60;strokeColor=#82b366;" parent="1" vertex="1">
          <mxGeometry x="1090" y="1360" width="230" height="230" as="geometry" />
        </mxCell>
        <mxCell id="R6_tbuOiA4LubrBfz1OE-21589" value="精品&lt;br&gt;水果捞" style="rounded=0;whiteSpace=wrap;html=1;shadow=0;glass=0;sketch=0;fillStyle=auto;fontSize=36;fillColor=#6a00ff;opacity=60;fontColor=#ffffff;strokeColor=#3700CC;" parent="1" vertex="1">
          <mxGeometry x="241.25" y="1081.25" width="168.75" height="217.5" as="geometry" />
        </mxCell>
        <mxCell id="R6_tbuOiA4LubrBfz1OE-21590" value="杂货店" style="rounded=0;whiteSpace=wrap;html=1;shadow=0;glass=0;sketch=0;fillStyle=auto;fontSize=36;fillColor=#e1d5e7;opacity=60;strokeColor=#9673a6;" parent="1" vertex="1">
          <mxGeometry x="650" y="1360" width="230" height="230" as="geometry" />
        </mxCell>
        <mxCell id="R6_tbuOiA4LubrBfz1OE-21591" value="蜜雪冰城" style="rounded=0;whiteSpace=wrap;html=1;shadow=0;glass=0;sketch=0;fillStyle=auto;fontSize=36;fillColor=#d80073;opacity=60;fontColor=#ffffff;strokeColor=#A50040;" parent="1" vertex="1">
          <mxGeometry x="240" y="810" width="170" height="270" as="geometry" />
        </mxCell>
        <mxCell id="R6_tbuOiA4LubrBfz1OE-21592" value="鲜花" style="rounded=0;whiteSpace=wrap;html=1;shadow=0;glass=0;sketch=0;fillStyle=auto;fontSize=24;fillColor=#fff2cc;opacity=60;strokeColor=#d6b656;" parent="1" vertex="1">
          <mxGeometry x="430" y="477.82" width="70" height="80" as="geometry" />
        </mxCell>
        <mxCell id="R6_tbuOiA4LubrBfz1OE-21595" value="&lt;font style=&quot;font-size: 30px;&quot;&gt;同心路入口&lt;/font&gt;" style="shape=flexArrow;endArrow=classic;html=1;rounded=0;fontSize=36;width=64.76190476190476;endSize=18.83809523809524;endWidth=52.06349206349206;" parent="1" edge="1">
          <mxGeometry width="50" height="50" relative="1" as="geometry">
            <mxPoint x="10" y="674.29" as="sourcePoint" />
            <mxPoint x="210" y="674" as="targetPoint" />
          </mxGeometry>
        </mxCell>
        <mxCell id="R6_tbuOiA4LubrBfz1OE-21600" value="糖果巧克力" style="rounded=0;whiteSpace=wrap;html=1;shadow=0;glass=0;sketch=1;fillStyle=auto;fontSize=36;fontColor=none;fillColor=#E85642;gradientColor=none;opacity=60;" parent="1" vertex="1">
          <mxGeometry x="500" y="550" width="250" height="47.82" as="geometry" />
        </mxCell>
        <mxCell id="R6_tbuOiA4LubrBfz1OE-21602" value="饮品冰柜" style="rounded=0;whiteSpace=wrap;html=1;shadow=0;glass=0;sketch=0;fillStyle=auto;fontSize=36;fontColor=#ffffff;fillColor=#2BE9F0;strokeColor=#006EAF;" parent="1" vertex="1">
          <mxGeometry x="770" y="542.82" width="420" height="47.18" as="geometry" />
        </mxCell>
        <mxCell id="R6_tbuOiA4LubrBfz1OE-21603" value="酸奶冰柜" style="rounded=0;whiteSpace=wrap;html=1;shadow=0;glass=0;sketch=0;fillStyle=auto;fontSize=36;fontColor=#ffffff;fillColor=#2BE9F0;strokeColor=#006EAF;" parent="1" vertex="1">
          <mxGeometry x="1190" y="542.82" width="340" height="47.18" as="geometry" />
        </mxCell>
        <mxCell id="R6_tbuOiA4LubrBfz1OE-21604" value="消防楼梯" style="rounded=0;whiteSpace=wrap;html=1;shadow=0;glass=0;sketch=0;fillStyle=auto;fontSize=36;fontColor=#ffffff;fillColor=#6d8764;strokeColor=#3A5431;" parent="1" vertex="1">
          <mxGeometry x="240" y="1300" width="350" height="70" as="geometry" />
        </mxCell>
        <mxCell id="R6_tbuOiA4LubrBfz1OE-21612" value="自助结账" style="rounded=1;whiteSpace=wrap;html=1;shadow=0;glass=0;sketch=1;fillStyle=auto;fontSize=27;fontColor=none;fillColor=#E85642;gradientColor=none;opacity=60;" parent="1" vertex="1">
          <mxGeometry x="1845" y="820" width="58" height="130" as="geometry" />
        </mxCell>
        <mxCell id="R6_tbuOiA4LubrBfz1OE-21628" value="墙" style="rounded=0;whiteSpace=wrap;html=1;glass=0;shadow=0;sketch=0;fillColor=#C2C2C2;gradientColor=none;strokeColor=#666666;fillStyle=auto;fontSize=36;" parent="1" vertex="1">
          <mxGeometry x="734.5" y="110" width="20" height="320" as="geometry" />
        </mxCell>
        <mxCell id="YbemHmgVhAmF9NjTrUaJ-4" value="刘刘美味小屋" style="shape=manualInput;whiteSpace=wrap;html=1;rounded=0;shadow=0;glass=0;sketch=0;fillStyle=auto;fontSize=24;fillColor=#f8cecc;opacity=60;rotation=0;strokeColor=#b85450;direction=south;labelPosition=center;verticalLabelPosition=middle;align=center;verticalAlign=middle;size=59;" parent="1" vertex="1">
          <mxGeometry x="1845" y="950" width="138" height="100" as="geometry" />
        </mxCell>
        <mxCell id="YbemHmgVhAmF9NjTrUaJ-46" value="面包" style="rounded=1;whiteSpace=wrap;html=1;shadow=0;glass=0;sketch=1;fillStyle=auto;fontSize=30;fontColor=none;fillColor=#E85642;gradientColor=none;opacity=60;" parent="1" vertex="1">
          <mxGeometry x="1040" y="1050" width="90" height="280" as="geometry" />
        </mxCell>
        <mxCell id="YbemHmgVhAmF9NjTrUaJ-62" value="&lt;p style=&quot;line-height: 100%; font-size: 22px;&quot;&gt;&lt;font style=&quot;font-size: 22px;&quot;&gt;鞋刷&lt;br style=&quot;font-size: 22px;&quot;&gt;澡巾&lt;br style=&quot;font-size: 22px;&quot;&gt;澡花&lt;br style=&quot;font-size: 22px;&quot;&gt;水果刀&lt;br style=&quot;font-size: 22px;&quot;&gt;筷子&lt;br style=&quot;font-size: 22px;&quot;&gt;削皮器&lt;br style=&quot;font-size: 22px;&quot;&gt;鞋刷&lt;br style=&quot;font-size: 22px;&quot;&gt;衣架&lt;br style=&quot;font-size: 22px;&quot;&gt;雨伞&lt;br style=&quot;font-size: 22px;&quot;&gt;挂钩&lt;br style=&quot;font-size: 22px;&quot;&gt;剪刀&lt;/font&gt;&lt;br style=&quot;font-size: 22px;&quot;&gt;&lt;/p&gt;" style="rounded=1;whiteSpace=wrap;html=1;shadow=0;glass=0;sketch=1;fillStyle=auto;fontSize=22;fontColor=none;fillColor=#E85642;gradientColor=none;opacity=60;" parent="1" vertex="1">
          <mxGeometry x="814.5" y="1050" width="60" height="280" as="geometry" />
        </mxCell>
        <mxCell id="YbemHmgVhAmF9NjTrUaJ-63" value="卫生巾" style="rounded=1;whiteSpace=wrap;html=1;shadow=0;glass=0;sketch=1;fillStyle=auto;fontSize=27;fontColor=none;fillColor=#E85642;gradientColor=none;opacity=60;" parent="1" vertex="1">
          <mxGeometry x="754.5" y="1050" width="60" height="280" as="geometry" />
        </mxCell>
        <mxCell id="YbemHmgVhAmF9NjTrUaJ-64" value="&lt;p style=&quot;line-height: 120%; font-size: 19px;&quot;&gt;&lt;font style=&quot;font-size: 19px;&quot;&gt;垃圾袋&lt;br&gt;漱口杯&lt;br&gt;棉签&lt;br&gt;台灯&lt;br&gt;保鲜袋&lt;br&gt;拖鞋&lt;/font&gt;&lt;br&gt;&lt;/p&gt;" style="rounded=1;whiteSpace=wrap;html=1;shadow=0;glass=0;sketch=1;fillStyle=auto;fontSize=27;fontColor=none;fillColor=#E85642;gradientColor=none;opacity=60;" parent="1" vertex="1">
          <mxGeometry x="952" y="1050" width="60" height="280" as="geometry" />
        </mxCell>
        <mxCell id="YbemHmgVhAmF9NjTrUaJ-72" value="糖果" style="rounded=1;whiteSpace=wrap;html=1;shadow=0;glass=0;sketch=1;fillStyle=auto;fontSize=27;fontColor=none;fillColor=#E85642;gradientColor=none;opacity=60;" parent="1" vertex="1">
          <mxGeometry x="1500" y="1050" width="60" height="280" as="geometry" />
        </mxCell>
        <mxCell id="YbemHmgVhAmF9NjTrUaJ-73" value="泡面" style="rounded=1;whiteSpace=wrap;html=1;shadow=0;glass=0;sketch=1;fillStyle=auto;fontSize=27;fontColor=none;fillColor=#E85642;gradientColor=none;opacity=60;" parent="1" vertex="1">
          <mxGeometry x="1440" y="1050" width="60" height="280" as="geometry" />
        </mxCell>
        <mxCell id="YbemHmgVhAmF9NjTrUaJ-74" value="果脯&lt;br&gt;肉干&lt;br&gt;干果" style="rounded=1;whiteSpace=wrap;html=1;shadow=0;glass=0;sketch=1;fillStyle=auto;fontSize=27;fontColor=none;fillColor=#E85642;gradientColor=none;opacity=60;" parent="1" vertex="1">
          <mxGeometry x="1360" y="1050" width="60" height="280" as="geometry" />
        </mxCell>
        <mxCell id="YbemHmgVhAmF9NjTrUaJ-75" value="花生&lt;br&gt;瓜子&lt;br&gt;果脯&lt;br&gt;" style="rounded=1;whiteSpace=wrap;html=1;shadow=0;glass=0;sketch=1;fillStyle=auto;fontSize=27;fontColor=none;fillColor=#E85642;gradientColor=none;opacity=60;" parent="1" vertex="1">
          <mxGeometry x="1300" y="1050" width="60" height="280" as="geometry" />
        </mxCell>
        <mxCell id="YbemHmgVhAmF9NjTrUaJ-76" value="泡面&lt;br&gt;自热米饭&lt;br&gt;" style="rounded=1;whiteSpace=wrap;html=1;shadow=0;glass=0;sketch=1;fillStyle=auto;fontSize=27;fontColor=none;fillColor=#E85642;gradientColor=none;opacity=60;" parent="1" vertex="1">
          <mxGeometry x="1220" y="1050" width="60" height="280" as="geometry" />
        </mxCell>
        <mxCell id="YbemHmgVhAmF9NjTrUaJ-77" value="泡面&lt;br&gt;辣酱&lt;br&gt;蜂蜜" style="rounded=1;whiteSpace=wrap;html=1;shadow=0;glass=0;sketch=1;fillStyle=auto;fontSize=27;fontColor=none;fillColor=#E85642;gradientColor=none;opacity=60;" parent="1" vertex="1">
          <mxGeometry x="1160" y="1050" width="60" height="280" as="geometry" />
        </mxCell>
        <mxCell id="YbemHmgVhAmF9NjTrUaJ-81" value="插座&lt;br&gt;拖鞋&lt;br&gt;水杯&lt;br&gt;暖壶&lt;br&gt;毛巾&lt;br&gt;" style="rounded=1;whiteSpace=wrap;html=1;shadow=0;glass=0;sketch=1;fillStyle=auto;fontSize=27;fontColor=none;fillColor=#E85642;gradientColor=none;opacity=60;" parent="1" vertex="1">
          <mxGeometry x="893" y="1050" width="60" height="280" as="geometry" />
        </mxCell>
        <mxCell id="YbemHmgVhAmF9NjTrUaJ-82" value="湿巾&lt;br&gt;卫生巾" style="rounded=1;whiteSpace=wrap;html=1;shadow=0;glass=0;sketch=1;fillStyle=auto;fontSize=27;fontColor=none;fillColor=#E85642;gradientColor=none;opacity=60;" parent="1" vertex="1">
          <mxGeometry x="680" y="1050" width="60" height="280" as="geometry" />
        </mxCell>
        <mxCell id="YbemHmgVhAmF9NjTrUaJ-83" value="纸巾" style="rounded=1;whiteSpace=wrap;html=1;shadow=0;glass=0;sketch=1;fillStyle=auto;fontSize=27;fontColor=none;fillColor=#E85642;gradientColor=none;opacity=60;" parent="1" vertex="1">
          <mxGeometry x="620" y="1050" width="60" height="280" as="geometry" />
        </mxCell>
        <mxCell id="YbemHmgVhAmF9NjTrUaJ-84" value="纸巾" style="rounded=1;whiteSpace=wrap;html=1;shadow=0;glass=0;sketch=1;fillStyle=auto;fontSize=27;fontColor=none;fillColor=#E85642;gradientColor=none;opacity=60;" parent="1" vertex="1">
          <mxGeometry x="550" y="1050" width="60" height="190" as="geometry" />
        </mxCell>
        <mxCell id="YbemHmgVhAmF9NjTrUaJ-85" value="纸巾" style="rounded=1;whiteSpace=wrap;html=1;shadow=0;glass=0;sketch=1;fillStyle=auto;fontSize=27;fontColor=none;fillColor=#E85642;gradientColor=none;opacity=60;" parent="1" vertex="1">
          <mxGeometry x="490" y="1050" width="60" height="190" as="geometry" />
        </mxCell>
        <mxCell id="YbemHmgVhAmF9NjTrUaJ-86" value="膨化食品" style="rounded=1;whiteSpace=wrap;html=1;shadow=0;glass=0;sketch=1;fillStyle=auto;fontSize=27;fontColor=none;fillColor=#E85642;gradientColor=none;opacity=60;" parent="1" vertex="1">
          <mxGeometry x="1640" y="760" width="60" height="280" as="geometry" />
        </mxCell>
        <mxCell id="YbemHmgVhAmF9NjTrUaJ-87" value="膨化食品" style="rounded=1;whiteSpace=wrap;html=1;shadow=0;glass=0;sketch=1;fillStyle=auto;fontSize=27;fontColor=none;fillColor=#E85642;gradientColor=none;opacity=60;" parent="1" vertex="1">
          <mxGeometry x="1580" y="756.5" width="60" height="280" as="geometry" />
        </mxCell>
        <mxCell id="YbemHmgVhAmF9NjTrUaJ-88" value="冲泡&lt;br&gt;罐头&lt;br&gt;果冻" style="rounded=1;whiteSpace=wrap;html=1;shadow=0;glass=0;sketch=1;fillStyle=auto;fontSize=27;fontColor=none;fillColor=#E85642;gradientColor=none;opacity=60;" parent="1" vertex="1">
          <mxGeometry x="1500" y="756.5" width="60" height="280" as="geometry" />
        </mxCell>
        <mxCell id="YbemHmgVhAmF9NjTrUaJ-89" value="矿泉水" style="rounded=1;whiteSpace=wrap;html=1;shadow=0;glass=0;sketch=1;fillStyle=auto;fontSize=27;fontColor=none;fillColor=#E85642;gradientColor=none;opacity=60;" parent="1" vertex="1">
          <mxGeometry x="1440" y="756.5" width="60" height="280" as="geometry" />
        </mxCell>
        <mxCell id="YbemHmgVhAmF9NjTrUaJ-90" value="饮品" style="rounded=1;whiteSpace=wrap;html=1;shadow=0;glass=0;sketch=1;fillStyle=auto;fontSize=27;fontColor=none;fillColor=#E85642;gradientColor=none;opacity=60;" parent="1" vertex="1">
          <mxGeometry x="1350" y="756.5" width="60" height="280" as="geometry" />
        </mxCell>
        <mxCell id="YbemHmgVhAmF9NjTrUaJ-91" value="饮品" style="rounded=1;whiteSpace=wrap;html=1;shadow=0;glass=0;sketch=1;fillStyle=auto;fontSize=27;fontColor=none;fillColor=#E85642;gradientColor=none;opacity=60;" parent="1" vertex="1">
          <mxGeometry x="1290" y="756.5" width="60" height="280" as="geometry" />
        </mxCell>
        <mxCell id="YbemHmgVhAmF9NjTrUaJ-92" value="面包" style="rounded=1;whiteSpace=wrap;html=1;shadow=0;glass=0;sketch=1;fillStyle=auto;fontSize=30;fontColor=none;fillColor=#E85642;gradientColor=none;opacity=60;" parent="1" vertex="1">
          <mxGeometry x="1040" y="756.5" width="90" height="280" as="geometry" />
        </mxCell>
        <mxCell id="YbemHmgVhAmF9NjTrUaJ-95" value="香肠&lt;br&gt;卤货" style="rounded=1;whiteSpace=wrap;html=1;shadow=0;glass=0;sketch=1;fillStyle=auto;fontSize=27;fontColor=none;fillColor=#E85642;gradientColor=none;opacity=60;" parent="1" vertex="1">
          <mxGeometry x="952" y="756.5" width="60" height="280" as="geometry" />
        </mxCell>
        <mxCell id="YbemHmgVhAmF9NjTrUaJ-96" value="鸭货&lt;br&gt;鸡腿&lt;br&gt;辣条" style="rounded=1;whiteSpace=wrap;html=1;shadow=0;glass=0;sketch=1;fillStyle=auto;fontSize=27;fontColor=none;fillColor=#E85642;gradientColor=none;opacity=60;" parent="1" vertex="1">
          <mxGeometry x="892" y="756.5" width="60" height="280" as="geometry" />
        </mxCell>
        <mxCell id="YbemHmgVhAmF9NjTrUaJ-97" value="辣条&lt;br&gt;鸭货&lt;br&gt;鸡腿" style="rounded=1;whiteSpace=wrap;html=1;shadow=0;glass=0;sketch=1;fillStyle=auto;fontSize=27;fontColor=none;fillColor=#E85642;gradientColor=none;opacity=60;" parent="1" vertex="1">
          <mxGeometry x="814.5" y="756.5" width="60" height="280" as="geometry" />
        </mxCell>
        <mxCell id="YbemHmgVhAmF9NjTrUaJ-98" value="饼干&lt;br&gt;糕点" style="rounded=1;whiteSpace=wrap;html=1;shadow=0;glass=0;sketch=1;fillStyle=auto;fontSize=27;fontColor=none;fillColor=#E85642;gradientColor=none;opacity=60;" parent="1" vertex="1">
          <mxGeometry x="754.5" y="756.5" width="60" height="280" as="geometry" />
        </mxCell>
        <mxCell id="YbemHmgVhAmF9NjTrUaJ-99" value="饼干&lt;br&gt;糕点" style="rounded=1;whiteSpace=wrap;html=1;shadow=0;glass=0;sketch=1;fillStyle=auto;fontSize=27;fontColor=none;fillColor=#E85642;gradientColor=none;opacity=60;" parent="1" vertex="1">
          <mxGeometry x="680" y="756.5" width="60" height="280" as="geometry" />
        </mxCell>
        <mxCell id="YbemHmgVhAmF9NjTrUaJ-100" value="洗衣液&lt;br&gt;香皂&lt;br&gt;洗洁精&lt;br&gt;肥皂" style="rounded=1;whiteSpace=wrap;html=1;shadow=0;glass=0;sketch=1;fillStyle=auto;fontSize=27;fontColor=none;fillColor=#E85642;gradientColor=none;opacity=60;" parent="1" vertex="1">
          <mxGeometry x="620" y="756.5" width="60" height="280" as="geometry" />
        </mxCell>
        <mxCell id="YbemHmgVhAmF9NjTrUaJ-101" value="毛巾&lt;br&gt;牙刷&lt;br&gt;袜子&lt;br&gt;内裤" style="rounded=1;whiteSpace=wrap;html=1;shadow=0;glass=0;sketch=1;fillStyle=auto;fontSize=27;fontColor=none;fillColor=#E85642;gradientColor=none;opacity=60;" parent="1" vertex="1">
          <mxGeometry x="550" y="756.5" width="60" height="280" as="geometry" />
        </mxCell>
        <mxCell id="YbemHmgVhAmF9NjTrUaJ-102" value="洗发水&lt;br&gt;沐浴露&lt;br&gt;洗面奶" style="rounded=1;whiteSpace=wrap;html=1;shadow=0;glass=0;sketch=1;fillStyle=auto;fontSize=27;fontColor=none;fillColor=#E85642;gradientColor=none;opacity=60;" parent="1" vertex="1">
          <mxGeometry x="490" y="756.5" width="60" height="280" as="geometry" />
        </mxCell>
        <mxCell id="YbemHmgVhAmF9NjTrUaJ-103" value="自助结账" style="rounded=1;whiteSpace=wrap;html=1;shadow=0;glass=0;sketch=1;fillStyle=auto;fontSize=27;fontColor=none;fillColor=#E85642;gradientColor=none;opacity=60;" parent="1" vertex="1">
          <mxGeometry x="243.88" y="713" width="166.12" height="37" as="geometry" />
        </mxCell>
        <mxCell id="YbemHmgVhAmF9NjTrUaJ-104" value="人工结账" style="rounded=1;whiteSpace=wrap;html=1;shadow=0;glass=0;sketch=1;fillStyle=auto;fontSize=27;fontColor=none;fillColor=#E85642;gradientColor=none;opacity=60;" parent="1" vertex="1">
          <mxGeometry x="250" y="550.74" width="130" height="39.26" as="geometry" />
        </mxCell>
        <mxCell id="YbemHmgVhAmF9NjTrUaJ-106" value="雪糕 冰激凌" style="rounded=0;whiteSpace=wrap;html=1;shadow=0;glass=0;sketch=0;fillStyle=auto;fontSize=36;fontColor=#ffffff;fillColor=#2BE9F0;strokeColor=#006EAF;" parent="1" vertex="1">
          <mxGeometry x="1060" y="640" width="260" height="60" as="geometry" />
        </mxCell>
        <mxCell id="YbemHmgVhAmF9NjTrUaJ-107" value="人工结账" style="rounded=1;whiteSpace=wrap;html=1;shadow=0;glass=0;sketch=1;fillStyle=auto;fontSize=27;fontColor=none;fillColor=#E85642;gradientColor=none;opacity=60;" parent="1" vertex="1">
          <mxGeometry x="1592.5" y="579.26" width="130" height="40" as="geometry" />
        </mxCell>
        <mxCell id="YbemHmgVhAmF9NjTrUaJ-111" value="&lt;font style=&quot;font-size: 60px;&quot;&gt;北苑生活区分布图&lt;/font&gt;" style="text;html=1;resizable=0;autosize=1;align=center;verticalAlign=middle;points=[];fillColor=none;strokeColor=none;rounded=0;fontSize=36;" parent="1" vertex="1">
          <mxGeometry x="790" y="20" width="500" height="90" as="geometry" />
        </mxCell>
        <mxCell id="xjmqVt3X7ruV0F9-SoPd-1" value="办公室" style="rounded=0;whiteSpace=wrap;html=1;shadow=0;glass=0;sketch=0;fillStyle=auto;fontSize=36;fillColor=#d5e8d4;opacity=60;strokeColor=#82b366;" parent="1" vertex="1">
          <mxGeometry x="589" y="1360" width="61" height="230" as="geometry" />
        </mxCell>
        <mxCell id="xjmqVt3X7ruV0F9-SoPd-4" value="作者: Mr.Hope" style="text;html=1;resizable=0;autosize=1;align=center;verticalAlign=middle;points=[];fillColor=none;strokeColor=none;rounded=0;fontSize=18;" parent="1" vertex="1">
          <mxGeometry x="10" y="1650" width="140" height="40" as="geometry" />
        </mxCell>
        <mxCell id="xjmqVt3X7ruV0F9-SoPd-6" value="临时区" style="rounded=1;whiteSpace=wrap;html=1;shadow=0;glass=0;sketch=1;fillStyle=auto;fontSize=27;fontColor=none;fillColor=#E85642;gradientColor=none;opacity=60;" parent="1" vertex="1">
          <mxGeometry x="1730" y="770" width="75.74" height="266.5" as="geometry" />
        </mxCell>
        <mxCell id="xjmqVt3X7ruV0F9-SoPd-9" value="盆&lt;br&gt;垃圾桶" style="rounded=1;whiteSpace=wrap;html=1;shadow=0;glass=0;sketch=1;fillStyle=auto;fontSize=36;fillColor=#e1d5e7;opacity=60;strokeColor=#9673a6;" parent="1" vertex="1">
          <mxGeometry x="479.47" y="640" width="160.53" height="80" as="geometry" />
        </mxCell>
        <mxCell id="xjmqVt3X7ruV0F9-SoPd-10" value="新生用品" style="rounded=1;whiteSpace=wrap;html=1;shadow=0;glass=0;sketch=1;fillStyle=auto;fontSize=36;fillColor=#e1d5e7;opacity=60;strokeColor=#9673a6;" parent="1" vertex="1">
          <mxGeometry x="840" y="639.26" width="180" height="80.74" as="geometry" />
        </mxCell>
        <mxCell id="xjmqVt3X7ruV0F9-SoPd-14" value="" style="endArrow=none;html=1;rounded=0;fontSize=24;exitX=0.75;exitY=1;exitDx=0;exitDy=0;entryX=0.75;entryY=0;entryDx=0;entryDy=0;" parent="1" source="xjmqVt3X7ruV0F9-SoPd-12" edge="1" target="xjmqVt3X7ruV0F9-SoPd-12">
          <mxGeometry width="50" height="50" relative="1" as="geometry">
            <mxPoint x="1372" y="770" as="sourcePoint" />
            <mxPoint x="1880" y="630" as="targetPoint" />
          </mxGeometry>
        </mxCell>
        <mxCell id="xjmqVt3X7ruV0F9-SoPd-16" value="" style="endArrow=none;html=1;rounded=0;fontSize=24;exitX=0.25;exitY=1;exitDx=0;exitDy=0;entryX=0.25;entryY=0;entryDx=0;entryDy=0;" parent="1" edge="1" target="xjmqVt3X7ruV0F9-SoPd-12">
          <mxGeometry width="50" height="50" relative="1" as="geometry">
            <mxPoint x="1880.1025" y="740.0000000000002" as="sourcePoint" />
            <mxPoint x="1880" y="600" as="targetPoint" />
          </mxGeometry>
        </mxCell>
        <mxCell id="xjmqVt3X7ruV0F9-SoPd-18" value="" style="endArrow=none;html=1;rounded=0;fontSize=24;exitX=0.25;exitY=1;exitDx=0;exitDy=0;" parent="1" edge="1" target="xjmqVt3X7ruV0F9-SoPd-12">
          <mxGeometry width="50" height="50" relative="1" as="geometry">
            <mxPoint x="1872.1025" y="737.82" as="sourcePoint" />
            <mxPoint x="1872" y="597.82" as="targetPoint" />
          </mxGeometry>
        </mxCell>
        <mxCell id="qVWmPh6hgpJYSadUTfBa-2" value="多巴胺&lt;br&gt;甜品烘焙" style="rounded=0;whiteSpace=wrap;html=1;shadow=0;glass=0;sketch=0;fillColor=#ffe6cc;strokeColor=#d79b00;fontSize=36;" parent="1" vertex="1">
          <mxGeometry x="240" y="100" width="248.75" height="155" as="geometry" />
        </mxCell>
        <mxCell id="qVWmPh6hgpJYSadUTfBa-3" value="墙" style="rounded=0;whiteSpace=wrap;html=1;glass=0;shadow=0;sketch=0;fillColor=#C2C2C2;gradientColor=none;strokeColor=#666666;fillStyle=auto;fontSize=24;" parent="1" vertex="1">
          <mxGeometry x="240.38" y="516.45" width="189.62" height="26.37" as="geometry" />
        </mxCell>
        <mxCell id="qVWmPh6hgpJYSadUTfBa-6" value="墙" style="rounded=0;whiteSpace=wrap;html=1;glass=0;shadow=0;sketch=0;fillColor=#C2C2C2;gradientColor=none;strokeColor=#666666;fillStyle=auto;fontSize=24;" parent="1" vertex="1">
          <mxGeometry x="240" y="756.5" width="189.62" height="26.37" as="geometry" />
        </mxCell>
        <mxCell id="xOUL4sWhdLIrKVsOlXZL-1" value="移动营业厅" style="rounded=0;whiteSpace=wrap;html=1;shadow=0;glass=0;sketch=0;fillStyle=auto;fontSize=36;fillColor=#f8cecc;strokeColor=#b85450;opacity=60;" parent="1" vertex="1">
          <mxGeometry x="880" y="1360" width="210" height="230" as="geometry" />
        </mxCell>
        <mxCell id="4zcDcCmV-l9QQNRoWqES-1" value="星巴克" style="rounded=0;whiteSpace=wrap;html=1;shadow=0;glass=0;sketch=0;fillStyle=auto;fontSize=36;fillColor=#e1d5e7;opacity=60;strokeColor=#9673a6;" vertex="1" parent="1">
          <mxGeometry x="243.88" y="250" width="156.12" height="266.45" as="geometry" />
        </mxCell>
        <mxCell id="4zcDcCmV-l9QQNRoWqES-2" style="edgeStyle=orthogonalEdgeStyle;rounded=0;orthogonalLoop=1;jettySize=auto;html=1;exitX=0;exitY=0.5;exitDx=0;exitDy=0;entryX=1;entryY=0.5;entryDx=0;entryDy=0;" edge="1" parent="1" source="R6_tbuOiA4LubrBfz1OE-21628" target="R6_tbuOiA4LubrBfz1OE-21628">
          <mxGeometry relative="1" as="geometry" />
        </mxCell>
        <mxCell id="4zcDcCmV-l9QQNRoWqES-3" value="休闲区&lt;br&gt;桌椅" style="rounded=1;whiteSpace=wrap;html=1;shadow=0;glass=0;sketch=1;fillStyle=auto;fontSize=36;fillColor=#e1d5e7;opacity=60;strokeColor=#9673a6;" vertex="1" parent="1">
          <mxGeometry x="525.26" y="371.45" width="199.47" height="145" as="geometry" />
        </mxCell>
        <mxCell id="4zcDcCmV-l9QQNRoWqES-4" value="墙" style="rounded=0;whiteSpace=wrap;html=1;glass=0;shadow=0;sketch=0;fillColor=#C2C2C2;gradientColor=none;strokeColor=#666666;fillStyle=auto;fontSize=24;" vertex="1" parent="1">
          <mxGeometry x="1560" y="514.26" width="30" height="105" as="geometry" />
        </mxCell>
        <mxCell id="4zcDcCmV-l9QQNRoWqES-6" value="酸奶冰柜" style="rounded=0;whiteSpace=wrap;html=1;shadow=0;glass=0;sketch=0;fillStyle=auto;fontSize=36;fontColor=#ffffff;fillColor=#2BE9F0;strokeColor=#006EAF;" vertex="1" parent="1">
          <mxGeometry x="1340" y="640" width="200" height="60" as="geometry" />
        </mxCell>
        <mxCell id="4zcDcCmV-l9QQNRoWqES-7" value="苹果校园体验中心" style="rounded=1;whiteSpace=wrap;html=1;shadow=0;glass=0;sketch=1;fillStyle=auto;fontSize=36;fillColor=#e1d5e7;opacity=60;strokeColor=#9673a6;" vertex="1" parent="1">
          <mxGeometry x="1592.5" y="1070" width="225" height="260" as="geometry" />
        </mxCell>
        <mxCell id="4zcDcCmV-l9QQNRoWqES-8" value="" style="shape=flexArrow;endArrow=classic;html=1;rounded=0;fontSize=36;width=52;endSize=20.44666666666667;endWidth=46;" edge="1" parent="1">
          <mxGeometry width="50" height="50" relative="1" as="geometry">
            <mxPoint x="2132" y="668.32" as="sourcePoint" />
            <mxPoint x="1980" y="668.32" as="targetPoint" />
          </mxGeometry>
        </mxCell>
        <mxCell id="4zcDcCmV-l9QQNRoWqES-9" value="新生用品" style="rounded=1;whiteSpace=wrap;html=1;shadow=0;glass=0;sketch=1;fillStyle=auto;fontSize=36;fillColor=#e1d5e7;opacity=60;strokeColor=#9673a6;" vertex="1" parent="1">
          <mxGeometry x="654.5" y="639.26" width="180" height="80.74" as="geometry" />
        </mxCell>
        <mxCell id="4zcDcCmV-l9QQNRoWqES-10" value="促销区" style="rounded=1;whiteSpace=wrap;html=1;shadow=0;glass=0;sketch=1;fillStyle=auto;fontSize=24;fillColor=#e1d5e7;opacity=60;strokeColor=#9673a6;" vertex="1" parent="1">
          <mxGeometry x="429.62" y="750" width="50.38" height="140" as="geometry" />
        </mxCell>
        <mxCell id="4zcDcCmV-l9QQNRoWqES-12" value="牛奶" style="rounded=1;whiteSpace=wrap;html=1;shadow=0;glass=0;sketch=1;fillStyle=auto;fontSize=24;fillColor=#e1d5e7;opacity=60;strokeColor=#9673a6;" vertex="1" parent="1">
          <mxGeometry x="424.62" y="900" width="55.38" height="130" as="geometry" />
        </mxCell>
        <mxCell id="4zcDcCmV-l9QQNRoWqES-13" value="纸巾" style="rounded=1;whiteSpace=wrap;html=1;shadow=0;glass=0;sketch=1;fillStyle=auto;fontSize=27;fontColor=none;fillColor=none;gradientColor=none;opacity=60;" vertex="1" parent="1">
          <mxGeometry x="420" y="1050" width="60" height="190" as="geometry" />
        </mxCell>
        <mxCell id="4zcDcCmV-l9QQNRoWqES-15" value="功能饮料&lt;br&gt;牛奶酸奶" style="rounded=1;whiteSpace=wrap;html=1;shadow=0;glass=0;sketch=1;fillStyle=auto;fontSize=27;fontColor=none;fillColor=#E85642;gradientColor=none;opacity=60;" vertex="1" parent="1">
          <mxGeometry x="1210" y="756.5" width="60" height="280" as="geometry" />
        </mxCell>
        <mxCell id="4zcDcCmV-l9QQNRoWqES-16" value="乳饮料" style="rounded=1;whiteSpace=wrap;html=1;shadow=0;glass=0;sketch=1;fillStyle=auto;fontSize=27;fontColor=none;fillColor=#E85642;gradientColor=none;opacity=60;" vertex="1" parent="1">
          <mxGeometry x="1150" y="756.5" width="60" height="280" as="geometry" />
        </mxCell>
        <mxCell id="4zcDcCmV-l9QQNRoWqES-18" value="口香糖" style="rounded=1;whiteSpace=wrap;html=1;shadow=0;glass=0;sketch=1;fillStyle=auto;fontSize=20;fontColor=none;fillColor=#E85642;gradientColor=none;opacity=60;" vertex="1" parent="1">
          <mxGeometry x="1530" y="541.37" width="30" height="78.63" as="geometry" />
        </mxCell>
        <mxCell id="4zcDcCmV-l9QQNRoWqES-19" value="&lt;font style=&quot;font-size: 36px;&quot;&gt;葱蜂鲜果&lt;/font&gt;" style="rounded=0;whiteSpace=wrap;html=1;shadow=0;glass=0;sketch=0;fillStyle=auto;fontSize=36;fillColor=#fff2cc;opacity=60;strokeColor=#d6b656;" vertex="1" parent="1">
          <mxGeometry x="1850" y="1060" width="240" height="255" as="geometry" />
        </mxCell>
      </root>
    </mxGraphModel>
  </diagram>
</mxfile>
